<?xml version="1.0" encoding="UTF-8"?>
<!DOCTYPE svg PUBLIC "-//W3C//DTD SVG 1.1//EN" "http://www.w3.org/Graphics/SVG/1.1/DTD/svg11.dtd">
<svg xmlns="http://www.w3.org/2000/svg" version="1.1" width="96px" height="96px" style="shape-rendering:geometricPrecision; text-rendering:geometricPrecision; image-rendering:optimizeQuality; fill-rule:evenodd; clip-rule:evenodd" xmlns:xlink="http://www.w3.org/1999/xlink">
<g><path style="opacity:0.993" fill="#fda20d" d="M 25.5,8.5 C 27.1529,12.1529 29.8196,14.8196 33.5,16.5C 42.6483,13.8936 51.815,13.8936 61,16.5C 65.3986,14.9359 68.2319,11.9359 69.5,7.5C 72.8092,4.84095 76.4758,2.67428 80.5,1C 82.2588,0.20245 83.9255,0.369117 85.5,1.5C 88.0032,8.48001 88.0032,15.48 85.5,22.5C 83.5705,26.182 82.2372,30.182 81.5,34.5C 82.9865,38.8132 84.4865,43.1465 86,47.5C 86.4983,50.8168 86.665,54.1501 86.5,57.5C 82.6286,57.185 78.9619,57.5184 75.5,58.5C 71.4849,59.5911 67.9849,61.5911 65,64.5C 59.665,52.1662 50.8317,48.6662 38.5,54C 34.9084,56.921 32.0751,60.421 30,64.5C 23.9425,58.8699 16.7758,56.5366 8.5,57.5C 8.60881,49.6689 10.2755,42.1689 13.5,35C 12.6852,30.865 11.3518,27.0317 9.5,23.5C 7.39272,16.5663 7.22605,9.56629 9,2.5C 10.8083,0.604066 12.975,0.104066 15.5,1C 19.3003,2.97889 22.6336,5.47889 25.5,8.5 Z"/></g>
<g><path style="opacity:0.971" fill="#ef0f00" d="M 69.5,7.5 C 68.2319,11.9359 65.3986,14.9359 61,16.5C 51.815,13.8936 42.6483,13.8936 33.5,16.5C 29.8196,14.8196 27.1529,12.1529 25.5,8.5C 39.9708,0.959987 54.6374,0.626654 69.5,7.5 Z"/></g>
<g><path style="opacity:1" fill="#ff8700" d="M 12.5,7.5 C 18.5465,9.20446 23.5465,12.5378 27.5,17.5C 23.1754,20.9921 19.342,24.9921 16,29.5C 12.2595,22.5476 11.0928,15.2142 12.5,7.5 Z"/></g>
<g><path style="opacity:1" fill="#ff8400" d="M 78.5,10.5 C 79.8333,10.5 81.1667,10.5 82.5,10.5C 82.9042,17.2143 81.5709,23.5477 78.5,29.5C 75.632,26.4685 72.9653,23.3018 70.5,20C 72.359,16.0913 75.0257,12.9247 78.5,10.5 Z"/></g>
<g><path style="opacity:0.955" fill="#ef1104" d="M 85.5,22.5 C 96.8306,39.0453 97.3306,56.0453 87,73.5C 69.7113,95.0258 48.5446,99.8591 23.5,88C 4.70767,75.3064 -2.12566,57.8064 3,35.5C 4.41823,30.9901 6.58489,26.9901 9.5,23.5C 11.3518,27.0317 12.6852,30.865 13.5,35C 10.2755,42.1689 8.60881,49.6689 8.5,57.5C 7.87605,57.9169 7.54272,58.5836 7.5,59.5C 15.4971,75.9797 28.6638,85.313 47,87.5C 61.2746,86.0294 73.2746,80.0294 83,69.5C 84.7411,66.6907 85.9078,63.6907 86.5,60.5C 87.8333,59.5 87.8333,58.5 86.5,57.5C 86.665,54.1501 86.4983,50.8168 86,47.5C 84.4865,43.1465 82.9865,38.8132 81.5,34.5C 82.2372,30.182 83.5705,26.182 85.5,22.5 Z"/></g>
<g><path style="opacity:1" fill="#fff6e9" d="M 26.5,32.5 C 28.5273,32.3379 30.5273,32.5045 32.5,33C 34.5152,34.5553 34.8485,36.3886 33.5,38.5C 29.5731,40.4138 26.5731,39.5804 24.5,36C 24.9783,34.6974 25.645,33.5307 26.5,32.5 Z"/></g>
<g><path style="opacity:1" fill="#fff8ed" d="M 62.5,32.5 C 67.7118,31.4915 69.8785,33.4915 69,38.5C 66.5991,39.6023 64.0991,39.769 61.5,39C 60.1443,36.5859 60.4776,34.4193 62.5,32.5 Z"/></g>
<g><path style="opacity:1" fill="#150d01" d="M 23.5,41.5 C 28.774,42.8868 33.6073,45.2201 38,48.5C 38.4828,49.448 38.6495,50.448 38.5,51.5C 32.9923,51.587 28.1589,49.9203 24,46.5C 23.5065,44.8659 23.3398,43.1992 23.5,41.5 Z"/></g>
<g><path style="opacity:1" fill="#160d01" d="M 67.5,41.5 C 69.1667,41.5 70.8333,41.5 72.5,41.5C 72.8957,44.0444 72.229,46.2111 70.5,48C 66.2845,49.6842 61.9512,50.8509 57.5,51.5C 57.3505,50.448 57.5172,49.448 58,48.5C 61.1454,46.0235 64.312,43.6902 67.5,41.5 Z"/></g>
<g><path style="opacity:1" fill="#fbf8f6" d="M 75.5,58.5 C 79.649,57.9197 83.3157,58.5864 86.5,60.5C 85.9078,63.6907 84.7411,66.6907 83,69.5C 73.2746,80.0294 61.2746,86.0294 47,87.5C 28.6638,85.313 15.4971,75.9797 7.5,59.5C 7.54272,58.5836 7.87605,57.9169 8.5,57.5C 16.7758,56.5366 23.9425,58.8699 30,64.5C 32.0751,60.421 34.9084,56.921 38.5,54C 50.8317,48.6662 59.665,52.1662 65,64.5C 67.9849,61.5911 71.4849,59.5911 75.5,58.5 Z"/></g>
<g><path style="opacity:1" fill="#141414" d="M 43.5,57.5 C 46.8499,57.335 50.1832,57.5017 53.5,58C 55.3072,61.7756 54.3072,64.6089 50.5,66.5C 49.2601,69.2967 50.2601,70.9634 53.5,71.5C 55.1347,70.9537 56.8014,70.6204 58.5,70.5C 58.3921,72.7834 57.5588,74.7834 56,76.5C 55.51,75.2068 55.3433,73.8734 55.5,72.5C 51.1667,72.5 46.8333,72.5 42.5,72.5C 42.6567,73.8734 42.49,75.2068 42,76.5C 40.7085,74.7513 39.5418,72.918 38.5,71C 49.2335,72.3158 50.7335,69.4825 43,62.5C 42.3603,60.735 42.5269,59.0683 43.5,57.5 Z"/></g>
<g><path style="opacity:1" fill="#ffd9b3" d="M 75.5,58.5 C 78.9619,57.5184 82.6286,57.185 86.5,57.5C 87.8333,58.5 87.8333,59.5 86.5,60.5C 83.3157,58.5864 79.649,57.9197 75.5,58.5 Z"/></g>
<g><path style="opacity:1" fill="#3e3e3e" d="M 44.5,74.5 C 46.6282,73.3709 48.9615,73.2042 51.5,74C 49.3013,75.5834 46.968,75.7501 44.5,74.5 Z"/></g>
</svg>
